<svg width="21" height="4" viewBox="0 0 21 4" fill="none" xmlns="http://www.w3.org/2000/svg">
<path d="M2.02063 4C0.91663 4 0.015625 3.104 0.015625 2C0.015625 0.896 0.90562 0 2.01062 0H2.02063C3.12463 0 4.02063 0.896 4.02063 2C4.02063 3.104 3.12563 4 2.02063 4ZM12.0206 2C12.0206 0.896 11.1246 0 10.0206 0H10.0106C8.90662 0 8.01562 0.896 8.01562 2C8.01562 3.104 8.91563 4 10.0206 4C11.1256 4 12.0206 3.104 12.0206 2ZM20.0206 2C20.0206 0.896 19.1246 0 18.0206 0H18.0106C16.9066 0 16.0156 0.896 16.0156 2C16.0156 3.104 16.9156 4 18.0206 4C19.1256 4 20.0206 3.104 20.0206 2Z" fill="#041723"/>
</svg>
